<svg width="185" height="76" viewBox="0 0 185 76" fill="none" xmlns="http://www.w3.org/2000/svg">
<path d="M23.1507 36.2402V57.4889H20.4493V53.8365C19.2968 55.2219 18.0181 56.2834 16.5954 56.9851C15.1727 57.6868 13.6059 58.0467 11.913 58.0467C8.90554 58.0467 6.33025 56.9491 4.20518 54.7721C2.08011 52.595 1.01758 49.9322 1.01758 46.8195C1.01758 43.7069 2.09812 41.152 4.2412 38.975C6.38427 36.7979 8.97757 35.7184 12.0031 35.7184C13.75 35.7184 15.3348 36.0962 16.7395 36.8339C18.1622 37.5716 19.3868 38.6871 20.4673 40.1804V36.2761H23.1687L23.1507 36.2402ZM12.2192 38.3272C10.7064 38.3272 9.28373 38.7051 8.00509 39.4428C6.72644 40.1984 5.69993 41.242 4.92554 42.5914C4.16916 43.9408 3.79097 45.3802 3.79097 46.8915C3.79097 48.4029 4.16916 49.8242 4.94355 51.1736C5.71794 52.5411 6.74445 53.6026 8.0411 54.3583C9.33776 55.1139 10.7245 55.5098 12.2012 55.5098C13.6779 55.5098 15.1187 55.1319 16.4513 54.3763C17.784 53.6206 18.8285 52.595 19.5489 51.3176C20.2692 50.0222 20.6294 48.5828 20.6294 46.9635C20.6294 44.4986 19.819 42.4475 18.1982 40.8102C16.5774 39.1549 14.5784 38.3272 12.2192 38.3272Z" fill="#27AAE1"/>
<path d="M48.6519 40.6483L46.4728 41.9977C44.5998 39.5148 42.0425 38.2733 38.8009 38.2733C36.2076 38.2733 34.0645 39.101 32.3537 40.7742C30.6428 42.4295 29.7964 44.4626 29.7964 46.8376C29.7964 48.3849 30.1926 49.8423 30.985 51.2097C31.7774 52.5771 32.8579 53.6386 34.2266 54.3943C35.5953 55.15 37.1441 55.5278 38.8369 55.5278C41.9525 55.5278 44.5098 54.2863 46.4908 51.8034L48.6699 53.2248C47.6614 54.7541 46.2927 55.9416 44.5818 56.7872C42.871 57.6329 40.926 58.0467 38.7289 58.0467C35.3612 58.0467 32.5698 56.9852 30.3547 54.8441C28.1396 52.703 27.041 50.1122 27.041 47.0535C27.041 45.0024 27.5633 43.0772 28.5898 41.314C29.6343 39.5508 31.057 38.1654 32.8579 37.1938C34.6768 36.2042 36.6939 35.7004 38.945 35.7004C40.3497 35.7004 41.7184 35.9163 43.015 36.3482C44.3297 36.78 45.4282 37.3377 46.3467 38.0214C47.2652 38.7051 48.0396 39.5867 48.6699 40.6483" fill="#27AAE1"/>
<path d="M55.64 28.3416H58.3774V36.2401H62.7175V38.5971H58.3774V57.4889H55.64V38.5971H51.9121V36.2401H55.64V28.3416Z" fill="#27AAE1"/>
<path d="M67.7775 27.496C68.4078 27.496 68.9301 27.7119 69.3803 28.1617C69.8125 28.6115 70.0466 29.1333 70.0466 29.763C70.0466 30.3927 69.8305 30.8965 69.3803 31.3463C68.9301 31.7961 68.4078 32.012 67.7775 32.012C67.1472 32.012 66.6429 31.7961 66.1927 31.3463C65.7605 30.9145 65.5264 30.3747 65.5264 29.763C65.5264 29.1513 65.7425 28.6115 66.1927 28.1617C66.6429 27.7299 67.1652 27.496 67.7775 27.496ZM66.4268 36.2402H69.1642V57.4889H66.4268V36.2402Z" fill="#27AAE1"/>
<path d="M71.8115 23.1958H74.9451L87.6955 53.1168L100.608 23.1958H103.724L87.6775 60.3676L71.8115 23.1958Z" fill="#27AAE1"/>
<path d="M71.8115 16.0889H74.9451L87.6955 46.0278L100.608 16.0889H103.724L88.0017 52.559L87.6955 53.2787L71.8115 16.0889Z" fill="#2EB9EC"/>
<path d="M71.8115 9H74.9451L87.6955 38.939L100.608 9H103.724L88.0017 45.4701L87.6775 46.2078L71.8115 9Z" fill="#44C8F5"/>
<path d="M107.271 28.7554H110.135V54.7181H121.21V57.4889H107.271V28.7554Z" fill="#27AAE1"/>
<path d="M145.199 36.2402V57.4889H142.497V53.8365C141.345 55.2219 140.066 56.2834 138.643 56.9851C137.221 57.6868 135.654 58.0467 133.961 58.0467C130.953 58.0467 128.378 56.9491 126.253 54.7721C124.128 52.595 123.065 49.9322 123.065 46.8195C123.065 43.7069 124.146 41.152 126.289 38.975C128.432 36.7979 131.025 35.7184 134.051 35.7184C135.798 35.7184 137.383 36.0962 138.787 36.8339C140.21 37.5716 141.435 38.6871 142.515 40.1804V36.2761H145.217L145.199 36.2402ZM134.267 38.3272C132.736 38.3272 131.332 38.7051 130.053 39.4428C128.774 40.1984 127.748 41.242 126.973 42.5914C126.217 43.9408 125.839 45.3802 125.839 46.8915C125.839 48.4029 126.217 49.8242 126.991 51.1736C127.766 52.5411 128.792 53.6026 130.089 54.3583C131.386 55.1139 132.772 55.5098 134.249 55.5098C135.726 55.5098 137.167 55.1319 138.499 54.3763C139.832 53.6206 140.876 52.595 141.597 51.3176C142.317 50.0222 142.677 48.5828 142.677 46.9635C142.677 44.4986 141.867 42.4475 140.246 40.8102C138.625 39.1549 136.626 38.3272 134.267 38.3272Z" fill="#27AAE1"/>
<path d="M148.422 36.2401H151.321L158.633 52.595L165.729 36.2401H168.646L155.95 65.2615H153.068L157.156 55.8696L148.422 36.2401Z" fill="#27AAE1"/>
<path d="M171.149 36.2402H173.941V39.3528C174.769 38.1294 175.652 37.2118 176.57 36.618C177.489 36.0063 178.461 35.7004 179.47 35.7004C180.226 35.7004 181.036 35.9343 181.901 36.4201L180.478 38.7231C179.902 38.4712 179.416 38.3453 179.037 38.3453C178.119 38.3453 177.236 38.7231 176.39 39.4608C175.544 40.2165 174.895 41.368 174.463 42.9513C174.121 44.1568 173.959 46.6037 173.959 50.2921V57.471H171.167V36.2402H171.149Z" fill="#27AAE1"/>
<path d="M180.982 57.7767C179.235 57.7767 177.812 56.3553 177.812 54.6101C177.812 52.8649 179.235 51.4435 180.982 51.4435C182.729 51.4435 184.152 52.8649 184.152 54.6101C184.152 56.3553 182.729 57.7767 180.982 57.7767ZM180.982 52.0732C179.595 52.0732 178.443 53.2067 178.443 54.6101C178.443 56.0135 179.577 57.147 180.982 57.147C182.387 57.147 183.521 56.0135 183.521 54.6101C183.521 53.2067 182.387 52.0732 180.982 52.0732Z" fill="#27AAE1"/>
<path d="M180.316 53.2787H180.803C181.073 53.2787 181.271 53.2787 181.361 53.3147C181.505 53.3507 181.631 53.4226 181.721 53.5306C181.811 53.6385 181.865 53.7825 181.865 53.9444C181.865 54.0883 181.829 54.1963 181.775 54.3042C181.703 54.4122 181.631 54.4842 181.505 54.5381C181.379 54.5921 181.217 54.6101 181.019 54.6101L181.919 55.7616H181.613L180.731 54.6101H180.587V55.7616H180.334V53.2967L180.316 53.2787ZM180.569 53.5126V54.3582H181.001C181.163 54.3582 181.289 54.3582 181.361 54.3222C181.433 54.2862 181.505 54.2323 181.541 54.1783C181.595 54.1063 181.613 54.0344 181.613 53.9444C181.613 53.8544 181.595 53.7825 181.541 53.7105C181.505 53.6385 181.433 53.6025 181.361 53.5666C181.289 53.5306 181.163 53.5306 181.001 53.5306H180.569V53.5126Z" fill="#27AAE1"/>
</svg>
